<svg width="19" height="20" viewBox="0 0 19 20" fill="none" xmlns="http://www.w3.org/2000/svg">
<g id="plus 1">
<g id="Group">
<path id="Vector" fill-rule="evenodd" clip-rule="evenodd" d="M9.54961 0.549805C9.90765 0.549805 10.251 0.692036 10.5042 0.945211C10.7574 1.19838 10.8996 1.54176 10.8996 1.8998V8.64981H17.6496C18.0077 8.64981 18.351 8.79204 18.6042 9.04521C18.8574 9.29839 18.9996 9.64176 18.9996 9.99981C18.9996 10.3578 18.8574 10.7012 18.6042 10.9544C18.351 11.2076 18.0077 11.3498 17.6496 11.3498H10.8996V18.0998C10.8996 18.4578 10.7574 18.8012 10.5042 19.0544C10.251 19.3076 9.90765 19.4498 9.54961 19.4498C9.19157 19.4498 8.84819 19.3076 8.59502 19.0544C8.34184 18.8012 8.19961 18.4578 8.19961 18.0998V11.3498H1.44961C1.09157 11.3498 0.748189 11.2076 0.495015 10.9544C0.241841 10.7012 0.0996094 10.3578 0.0996094 9.99981C0.0996094 9.64176 0.241841 9.29839 0.495015 9.04521C0.748189 8.79204 1.09157 8.64981 1.44961 8.64981H8.19961V1.8998C8.19961 1.54176 8.34184 1.19838 8.59502 0.945211C8.84819 0.692036 9.19157 0.549805 9.54961 0.549805Z" fill="#18181B"/>
</g>
</g>
</svg>
